# xmcd
#
# Track frame offsets: 
#        150
#        11150
#        20917
#        30682
#        40020
#        50070
#        68697
#        78457
#        93275
#        107430
#        115317
#        125062
#        135352
#        145437
#        156972
#
# Disc length: 2228 seconds
#
# Revision: 6
# Processed by: cddbd v1.5.2PL0 Copyright (c) Steve Scherf et al.
# Submitted via: ExactAudioCopy v0.99pb4
#
DISCID=cd08b20f
DTITLE=Burl Ives - The Christmas Collection
DYEAR=2003
DGENRE=Christmas
TTITLE0=Overture and A Holly Jolly Christmas
TTITLE1=Rudolph The Red-Nosed Reindeer
TTITLE2=White Christmas
TTITLE3=Oh, Little Town Of Bethlehem
TTITLE4=Silver Bells
TTITLE5=Twelve Days Of Christmas
TTITLE6=Santa Claus Is Coming To Town
TTITLE7=The Little Drummer Boy
TTITLE8=What Child Is This?
TTITLE9=Silver And Gold
TTITLE10=It Came Upon A Midnight Clear
TTITLE11=Winter Wonderland
TTITLE12=I Heard The Bells On Christmas Day
TTITLE13=Silent Night
TTITLE14=A Holly Jolly Christmas
EXTD=M C A 
EXTT0=
EXTT1=
EXTT2=
EXTT3=
EXTT4=
EXTT5=
EXTT6=
EXTT7=
EXTT8=
EXTT9=
EXTT10=
EXTT11=
EXTT12=
EXTT13=
EXTT14=
PLAYORDER=
